<?xml version="1.0" encoding="UTF-8"?>
<svg width="207.11" height="55.843" viewBox="0 0 207.109 55.843" xmlns="http://www.w3.org/2000/svg">
<g transform="translate(155.11)" data-name="Grupo 721">
<g transform="translate(-155.11)" data-name="Grupo 14">
<g data-name="Grupo 5">
<g transform="translate(15.994 17.078)" data-name="Grupo 1">
<rect width="8.946" height="16.536" fill="#fff" data-name="Retângulo 1"/>
</g>
<g transform="translate(33.615 17.078)" data-name="Grupo 2">
<rect width="8.946" height="16.536" fill="#fff" data-name="Retângulo 2"/>
</g>
<g transform="translate(8.946)" data-name="Grupo 3">
<path transform="translate(-3.3)" d="M44.234,13.012H37.728c0-1.627-.271-6.506-4.337-6.506H14.143c-4.066,0-4.337,4.88-4.337,6.506H3.3C3.3,6.506,6.553,0,14.143,0H33.662C40.981,0,44.234,6.506,44.234,13.012Z" fill="#a479b5" data-name="Caminho 1"/>
</g>
<g transform="translate(0 17.078)" data-name="Grupo 4">
<path transform="translate(0 -6.3)" d="M50.422,6.3c0,2.982-.271,8.4-.542,12.2-.542,4.337-.813,8.946-1.9,12.741-2.169,1.084-9.759,2.169-18.7,2.169h0c-8.946,0-16.536-1.084-18.7-2.169-1.084-3.8-1.355-8.4-1.9-12.741,0-3.8-.271-9.217-.271-12.2H0c0,3.253.271,7.861.542,11.928.542,5.151,1.084,11.386,2.44,15.994,1.355,4.337,7.048,5.693,12.47,6.506a109.684,109.684,0,0,0,14.1.813h0a109.684,109.684,0,0,0,14.1-.813c5.422-.813,11.115-2.169,12.47-6.506,1.355-4.608,1.9-10.843,2.44-15.994.271-4.066.542-8.946.542-11.928H50.422Z" fill="#fff" data-name="Caminho 2"/>
</g>
</g>
<g transform="translate(75.904 6.506)" data-name="Grupo 13">
<g data-name="Grupo 6">
<path transform="translate(-28 -2.4)" d="M54.3,25.171V40.894a1.166,1.166,0,0,1-1.084,1.084H47.789A1.166,1.166,0,0,1,46.7,40.894V25.171c0-3.253-1.084-4.88-4.88-4.88A8.659,8.659,0,0,0,35.59,23V40.894a1.166,1.166,0,0,1-1.084,1.084H29.084A1.166,1.166,0,0,1,28,40.894V3.484A1.166,1.166,0,0,1,29.084,2.4h5.422A1.166,1.166,0,0,1,35.59,3.484V16.5a12.349,12.349,0,0,1,7.861-2.982C50.5,13.515,54.3,16.768,54.3,25.171Z" fill="#fff" data-name="Caminho 3"/>
</g>
<g transform="translate(48.795 10.843)" data-name="Grupo 7">
<path transform="translate(-46 -6.4)" d="M73.922,21.039c0,10.03-5.422,14.639-12.741,14.639a12.329,12.329,0,0,1-7.59-2.711V43.81a1.166,1.166,0,0,1-1.084,1.084H47.084A1.166,1.166,0,0,1,46,43.81V8.3a1.166,1.166,0,0,1,1.084-1.084h5.422A1.166,1.166,0,0,1,53.59,8.3V9.382A11.65,11.65,0,0,1,61.181,6.4C68.771,6.4,73.922,11.28,73.922,21.039Zm-7.861,0c0-5.151-2.169-7.861-6.235-7.861a9.473,9.473,0,0,0-5.964,2.169V26.731A10.074,10.074,0,0,0,59.825,28.9C63.892,29.171,66.06,26.46,66.06,21.039Z" fill="#fff" data-name="Caminho 4"/>
</g>
<g transform="translate(81.868 10.843)" data-name="Grupo 8">
<path transform="translate(-58.2 -6.4)" d="M74.194,29.442a16.473,16.473,0,0,0,6.777-1.627c.542-.271,1.355,0,1.355.542l1.355,4.066a.99.99,0,0,1-.542,1.355c-2.982,1.627-5.964,2.169-10.03,2.169-9.759,0-14.91-5.964-14.91-14.91C58.2,11.551,64.164,6.4,71.754,6.4,79.616,6.4,84.5,11.008,84.5,20.225v1.9a1.166,1.166,0,0,1-1.084,1.084H66.333C66.875,26.731,68.772,29.442,74.194,29.442ZM66.6,17.515H77.176c-.271-3.524-1.9-4.88-5.151-4.88C69.315,12.635,67.146,13.719,66.6,17.515Z" fill="#fff" data-name="Caminho 5"/>
</g>
<g transform="translate(114.67 11.115)" data-name="Grupo 9">
<path transform="translate(-70.3 -6.5)" d="M86.836,7.584v4.608a1.166,1.166,0,0,1-1.084,1.084,7.505,7.505,0,0,0-2.44.271,14.589,14.589,0,0,0-5.422,2.711V33.88a1.166,1.166,0,0,1-1.084,1.084H71.384A1.166,1.166,0,0,1,70.3,33.88V8.127a1.166,1.166,0,0,1,1.084-1.084h5.422A1.166,1.166,0,0,1,77.89,8.127V9.753A12.331,12.331,0,0,1,84.4,6.5h1.084A1.24,1.24,0,0,1,86.836,7.584Z" fill="#fff" data-name="Caminho 6"/>
</g>
<g transform="translate(33.615 1.084)" data-name="Grupo 12">
<g transform="translate(0 10.572)" data-name="Grupo 10">
<path transform="translate(-40.4 -6.7)" d="M41.484,6.7h5.422A1.166,1.166,0,0,1,47.99,7.784V33.537a1.166,1.166,0,0,1-1.084,1.084H41.484A1.166,1.166,0,0,1,40.4,33.537V7.784A1.166,1.166,0,0,1,41.484,6.7Z" fill="#fff" data-name="Caminho 7"/>
</g>
<g transform="translate(0)" data-name="Grupo 11">
<path transform="translate(-40.4 -2.8)" d="M47.719,3.884A5.448,5.448,0,0,0,44.2,2.8h0a7.688,7.688,0,0,0-3.524,1.084c-.271,0-.271.271-.271.542V8.493c0,.271,0,.542.271.542A5.448,5.448,0,0,0,44.2,10.119h0a7.688,7.688,0,0,0,3.524-1.084c.271,0,.271-.271.271-.542V4.427A.946.946,0,0,0,47.719,3.884Z" fill="#fff" data-name="Caminho 8"/>
</g>
</g>
</g>
</g>
</g>
</svg>
